<?xml version="1.0" standalone="no"?>
<!DOCTYPE svg PUBLIC "-//W3C//DTD SVG 20010904//EN"
 "http://www.w3.org/TR/2001/REC-SVG-20010904/DTD/svg10.dtd">
<svg version="1.0" xmlns="http://www.w3.org/2000/svg"
 width="900.000000pt" height="372.000000pt" viewBox="0 0 900.000000 372.000000"
 preserveAspectRatio="xMidYMid meet">
<metadata>
Created by potrace 1.10, written by Peter Selinger 2001-2011
</metadata>
<g transform="translate(0.000000,372.000000) scale(0.100000,-0.100000)"
fill="#c061cb" stroke="none">
<path d="M1595 3511 c-11 -5 -51 -11 -90 -15 -38 -4 -83 -11 -100 -16 -16 -5
-64 -19 -105 -30 -41 -12 -83 -25 -92 -31 -10 -5 -23 -9 -30 -9 -7 -1 -31 -9
-53 -20 -22 -11 -45 -19 -51 -20 -6 0 -17 -7 -24 -15 -7 -8 -23 -15 -36 -15
-12 0 -26 -5 -29 -11 -4 -5 -17 -14 -28 -20 -21 -9 -50 -26 -71 -42 -6 -4 -36
-25 -68 -45 -169 -111 -376 -331 -481 -512 -28 -49 -97 -188 -97 -196 0 -3 -9
-26 -21 -52 -11 -26 -24 -56 -28 -67 -20 -49 -55 -207 -70 -315 -5 -36 -15
-102 -22 -147 -11 -68 -11 -98 0 -170 8 -49 17 -113 22 -143 13 -100 52 -274
69 -315 5 -11 18 -42 30 -70 11 -27 34 -76 50 -108 17 -32 30 -65 30 -73 0 -8
4 -14 9 -14 5 0 14 -12 20 -27 13 -34 25 -52 78 -125 24 -31 43 -59 43 -61 0
-20 204 -225 280 -282 36 -27 67 -52 70 -55 8 -10 201 -123 240 -141 19 -9 56
-26 81 -38 25 -11 53 -21 61 -21 8 0 18 -3 22 -7 4 -5 29 -13 54 -20 26 -6 74
-19 107 -28 110 -31 248 -48 385 -48 140 1 314 20 363 41 16 7 36 12 45 12 16
0 181 50 227 68 86 35 246 124 285 159 53 48 72 95 48 119 -20 20 -62 5 -150
-52 -163 -106 -374 -193 -538 -222 -103 -18 -434 -21 -530 -4 -102 18 -200 43
-206 53 -3 5 -14 9 -26 9 -23 0 -54 13 -188 78 -155 75 -284 165 -400 282
-127 126 -137 139 -217 260 -34 52 -67 100 -72 106 -4 6 -12 21 -16 35 -4 13
-21 53 -37 89 -16 36 -36 79 -44 97 -8 17 -14 40 -14 51 0 12 -4 23 -9 26 -5
3 -12 27 -16 53 -3 27 -13 67 -20 89 -21 62 -37 285 -30 399 9 129 22 231 34
253 6 9 13 38 16 64 3 26 10 50 16 53 5 4 9 19 9 34 0 15 7 36 15 47 8 10 15
25 15 33 0 19 94 205 141 280 137 217 357 419 587 538 35 18 70 33 78 33 8 0
14 4 14 10 0 5 15 14 33 19 17 6 59 20 92 31 171 61 256 73 500 73 156 1 229
-4 285 -16 113 -24 178 -41 186 -50 4 -4 14 -7 22 -7 29 0 252 -108 333 -162
251 -166 419 -358 560 -640 16 -31 29 -63 29 -71 0 -7 7 -22 15 -33 8 -10 15
-31 15 -45 0 -14 7 -34 15 -45 8 -10 15 -29 15 -41 0 -11 10 -47 22 -78 24
-63 54 -84 95 -66 32 15 29 50 -19 216 -21 72 -131 310 -155 333 -7 7 -13 18
-13 23 0 5 -5 15 -10 22 -6 7 -38 49 -70 94 -98 134 -287 315 -428 409 -40 27
-137 81 -199 112 -117 58 -290 111 -458 139 -102 17 -370 27 -400 14z"/>
<path d="M2222 2894 c-64 -51 -62 -16 -62 -883 0 -520 -4 -800 -11 -826 -6
-22 -13 -53 -16 -69 -8 -39 -72 -134 -121 -178 -22 -19 -64 -48 -93 -63 -49
-25 -64 -27 -174 -28 -118 0 -121 0 -183 33 -136 72 -217 194 -228 344 -3 44
-10 96 -16 114 -29 95 -155 120 -232 46 -43 -42 -51 -85 -36 -193 14 -104 51
-215 98 -294 43 -72 141 -173 195 -202 20 -11 37 -23 37 -27 0 -5 6 -8 13 -8
6 0 25 -7 40 -15 63 -32 219 -65 312 -64 110 0 264 37 338 81 26 15 50 28 54
28 8 0 85 62 112 90 80 84 147 209 172 320 10 41 14 267 16 885 3 778 2 832
-14 863 -37 70 -141 93 -201 46z"/>
<path d="M6564 2231 c-11 -5 -28 -21 -37 -35 -16 -23 -17 -86 -17 -716 l0
-692 29 -29 c33 -32 58 -36 101 -14 45 23 52 60 49 297 l-2 213 184 3 c137 2
192 6 216 17 17 8 42 15 56 15 60 0 203 102 250 178 52 84 62 128 62 277 0
149 -10 193 -62 278 -33 52 -93 117 -108 117 -8 0 -20 6 -27 14 -20 20 -74 46
-95 46 -10 0 -31 8 -48 17 -26 15 -65 18 -280 20 -137 1 -259 -1 -271 -6z
m530 -176 c15 -8 34 -15 41 -15 17 0 125 -110 125 -127 0 -8 7 -21 15 -29 16
-16 17 -31 16 -161 0 -63 -5 -91 -22 -125 -29 -56 -112 -135 -158 -149 -35
-11 -369 -28 -403 -21 -17 4 -18 27 -18 316 0 172 3 316 7 319 3 4 88 7 187 7
141 0 187 -3 210 -15z"/>
<path d="M8147 2218 c-28 -25 -77 -111 -77 -135 0 -8 -7 -27 -14 -41 -8 -15
-21 -43 -29 -62 -8 -19 -31 -75 -51 -125 -54 -132 -57 -137 -72 -168 -8 -16
-14 -35 -14 -44 0 -8 -6 -27 -14 -41 -24 -46 -56 -119 -56 -126 0 -4 -12 -33
-26 -64 -47 -106 -54 -123 -54 -136 0 -8 -7 -19 -15 -26 -8 -7 -15 -20 -15
-29 0 -9 -7 -29 -15 -45 -8 -15 -15 -32 -15 -37 0 -5 -13 -38 -30 -72 -16 -35
-30 -67 -30 -71 0 -4 -13 -37 -30 -73 -37 -79 -40 -137 -8 -165 51 -44 109
-29 145 37 12 22 22 46 22 52 1 7 14 41 30 75 16 35 33 75 36 90 4 15 13 32
20 38 10 8 121 12 357 13 332 2 344 1 360 -18 10 -11 17 -24 18 -29 0 -5 9
-27 19 -50 10 -23 27 -61 36 -86 44 -113 53 -128 88 -139 84 -28 145 52 103
136 -8 15 -19 39 -25 53 -5 14 -19 46 -30 72 -12 26 -21 54 -21 62 0 8 -4 17
-9 20 -4 3 -19 34 -32 68 -13 35 -29 74 -36 88 -7 14 -13 32 -13 41 0 9 -7 22
-15 29 -8 7 -15 21 -15 31 0 10 -4 20 -9 23 -5 3 -12 18 -15 33 -4 16 -13 42
-21 58 -29 64 -45 103 -45 114 0 6 -4 11 -10 11 -5 0 -12 17 -16 37 -4 21 -13
44 -21 51 -7 7 -13 21 -13 31 0 10 -11 39 -25 65 -14 26 -25 52 -25 57 0 9
-15 46 -56 136 -8 17 -14 36 -14 41 0 6 -8 25 -17 44 -9 18 -22 45 -30 60 -7
14 -13 35 -13 45 0 29 -51 82 -86 89 -24 4 -37 0 -57 -18z m78 -338 c7 -19 23
-60 35 -90 13 -30 26 -64 31 -75 4 -11 17 -41 28 -67 12 -26 21 -51 21 -56 0
-5 7 -23 15 -38 8 -16 15 -36 15 -44 0 -8 7 -24 15 -34 8 -11 15 -29 15 -40 0
-12 7 -30 15 -40 8 -11 15 -25 15 -32 0 -13 35 -91 53 -117 10 -14 9 -19 -3
-27 -9 -6 -133 -10 -293 -10 -302 0 -308 1 -273 55 9 13 16 33 16 43 0 11 7
25 15 32 8 7 15 23 15 35 0 12 7 28 15 35 8 7 15 22 15 34 0 12 7 31 15 42 8
10 15 29 15 40 0 12 7 27 15 34 8 7 15 20 15 29 0 9 7 29 15 45 8 15 15 32 15
38 0 5 14 38 30 73 17 35 30 71 30 78 0 8 6 20 14 26 7 6 16 25 20 42 8 41 34
35 51 -11z"/>
<path d="M4856 1782 c-26 -5 -55 -42 -56 -68 0 -12 -7 -27 -15 -34 -8 -7 -15
-17 -15 -22 0 -5 -20 -51 -45 -102 -25 -52 -45 -97 -45 -101 0 -8 -21 -58 -60
-140 -16 -33 -36 -78 -45 -100 -9 -22 -21 -47 -26 -55 -5 -8 -12 -22 -15 -30
-3 -8 -11 -28 -19 -45 -7 -16 -16 -40 -20 -52 -3 -13 -12 -23 -19 -23 -14 0
-46 31 -46 45 0 4 -14 37 -31 74 -17 36 -40 86 -51 111 -12 25 -25 52 -30 60
-4 8 -11 22 -14 30 -3 8 -18 42 -34 75 -15 33 -36 78 -45 100 -9 22 -23 55
-31 72 -8 18 -22 50 -31 70 -49 115 -65 133 -113 133 -72 0 -92 -63 -51 -155
24 -54 57 -121 70 -145 5 -8 13 -26 19 -40 9 -21 38 -86 97 -215 8 -16 34 -73
59 -125 25 -53 46 -101 46 -107 0 -6 7 -13 15 -17 8 -3 15 -15 15 -26 0 -11 4
-28 9 -38 30 -55 51 -104 51 -116 0 -21 58 -66 84 -66 12 0 32 7 44 16 20 14
82 130 97 182 3 12 11 22 16 22 5 0 9 5 9 11 0 10 13 39 85 194 23 50 50 111
60 138 10 26 22 47 26 47 5 0 9 5 9 11 0 6 16 45 35 86 19 41 35 79 35 84 0 5
11 27 25 49 14 22 25 46 25 53 0 7 7 22 15 33 23 31 19 89 -7 106 -29 18 -57
25 -82 20z"/>
<path d="M5544 1774 c-247 -50 -414 -262 -414 -522 0 -50 4 -93 9 -96 5 -3 12
-27 15 -53 7 -46 55 -152 83 -183 119 -129 182 -163 347 -187 47 -6 172 15
201 34 11 7 27 13 37 13 10 0 18 3 18 8 0 4 16 16 36 27 19 10 49 34 65 53 41
47 59 37 59 -32 0 -48 3 -57 31 -80 40 -34 73 -33 111 4 l30 30 -5 298 c-5
314 -2 295 -56 426 -23 56 -125 169 -163 182 -10 3 -18 10 -18 15 0 5 -7 9
-16 9 -9 0 -31 8 -48 19 -64 38 -223 56 -322 35z m261 -172 c74 -38 123 -89
162 -169 34 -71 36 -83 36 -172 1 -71 -4 -105 -16 -130 -9 -19 -17 -39 -17
-46 0 -21 -106 -145 -125 -145 -7 0 -18 -7 -25 -15 -7 -8 -23 -15 -36 -15 -12
0 -26 -4 -29 -10 -3 -6 -48 -10 -100 -10 -52 0 -97 4 -100 10 -3 6 -16 10 -29
10 -27 0 -53 19 -120 86 -67 68 -74 77 -82 111 -4 15 -11 34 -17 41 -5 7 -10
54 -11 105 -1 93 3 108 52 205 21 41 96 113 142 137 59 31 82 34 180 31 72 -3
105 -8 135 -24z"/>
<path d="M3145 1769 c-22 -5 -73 -26 -114 -47 -120 -60 -210 -177 -255 -333
-17 -60 -22 -234 -7 -243 5 -4 12 -24 16 -46 16 -96 129 -260 200 -291 11 -5
27 -13 35 -18 100 -57 300 -70 397 -25 17 7 36 14 42 14 6 0 11 4 11 9 0 5 10
13 22 17 13 4 43 26 67 49 25 24 51 41 58 38 8 -3 13 -22 13 -50 0 -56 28 -98
70 -107 40 -8 88 16 96 49 3 13 4 156 2 317 -5 304 -4 297 -49 380 -5 10 -9
24 -9 31 0 8 -9 24 -20 37 -11 13 -20 26 -20 30 0 13 -102 109 -121 115 -10 4
-19 11 -19 16 0 5 -9 9 -19 9 -11 0 -26 6 -34 14 -38 38 -257 59 -362 35z
m231 -144 c88 -35 137 -66 169 -105 109 -132 123 -343 31 -474 -54 -78 -129
-136 -174 -136 -11 0 -22 -6 -24 -12 -6 -17 -165 -18 -187 -1 -9 7 -25 13 -37
13 -54 0 -170 123 -205 216 -36 93 -22 253 28 332 29 45 107 124 133 134 94
39 121 46 171 47 31 1 74 -6 95 -14z"/>
</g>
</svg>
