<?xml version="1.0" standalone="no"?>
<!DOCTYPE svg PUBLIC "-//W3C//DTD SVG 20010904//EN"
 "http://www.w3.org/TR/2001/REC-SVG-20010904/DTD/svg10.dtd">
<svg version="1.0" xmlns="http://www.w3.org/2000/svg"
 width="300.000000pt" height="124.000000pt" viewBox="0 0 300.000000 124.000000"
 preserveAspectRatio="xMidYMid meet">
<metadata>
Created by potrace 1.10, written by Peter Selinger 2001-2011
</metadata>
<g transform="translate(0.000000,124.000000) scale(0.050000,-0.050000)"
fill="#ffffff" stroke="none">
<path d="M940 2338 c-1008 -194 -1181 -1649 -251 -2105 378 -185 1021 -106
1153 141 40 75 7 75 -116 0 -701 -425 -1565 55 -1566 869 -1 1162 1607 1410
1990 307 54 -154 124 -187 102 -47 -87 543 -724 949 -1312 835z"/>
<path d="M1464 1936 c-18 -18 -24 -175 -24 -582 0 -619 -8 -663 -128 -736
-181 -111 -412 25 -412 241 0 89 -80 139 -150 93 -92 -61 -56 -290 66 -419
222 -234 591 -188 775 97 46 72 72 1209 29 1289 -24 46 -117 56 -156 17z"/>
<path d="M5426 1495 c-46 -59 -388 -919 -382 -960 13 -94 101 -58 148 61 l42
107 233 3 234 4 32 -90 c43 -117 72 -147 125 -131 65 21 55 60 -138 522 -99
237 -180 440 -180 449 0 17 -63 60 -86 60 -5 0 -18 -11 -28 -25z m142 -451
l88 -224 -188 0 -187 0 37 95 c91 229 149 364 155 358 4 -3 46 -106 95 -229z"/>
<path d="M4355 1488 c-41 -41 -16 -985 26 -998 79 -25 102 23 95 194 l-6 156
130 1 c392 3 550 385 252 608 -57 43 -462 75 -497 39z m447 -166 c160 -161 29
-362 -237 -362 l-85 0 0 210 0 210 132 0 c118 0 137 -6 190 -58z"/>
<path d="M2674 1197 c-51 -29 -18 -121 196 -547 117 -233 127 -228 303 150
151 323 169 387 114 408 -44 17 -72 -11 -122 -122 -24 -53 -70 -157 -104 -232
-34 -75 -61 -147 -61 -159 0 -45 -34 18 -140 259 -110 252 -128 275 -186 243z"/>
<path d="M3670 1193 c-158 -61 -250 -191 -250 -350 0 -288 313 -464 518 -292
l59 50 7 -43 c9 -62 64 -93 104 -59 43 35 43 315 2 455 -58 195 -265 308 -440
239z m262 -181 c78 -78 92 -188 38 -292 -87 -168 -344 -138 -405 48 -81 244
188 423 367 244z"/>
<path d="M2010 1155 c-144 -81 -211 -298 -143 -461 85 -200 337 -272 493 -141
l57 48 7 -43 c9 -62 64 -93 104 -59 37 30 44 293 13 429 -55 236 -316 347
-531 227z m332 -131 c51 -46 65 -75 72 -155 23 -273 -301 -368 -421 -123 -112
229 161 446 349 278z"/>
</g>
</svg>
