<?xml version="1.0" encoding="UTF-8"?>
<svg version="1.1" xmlns="http://www.w3.org/2000/svg" width="192" height="101">
<path d="M0 0 C2.26940699 1.45157078 4.45265935 2.85420403 6.50390625 4.6015625 C6.50390625 5.2615625 6.50390625 5.9215625 6.50390625 6.6015625 C7.1071875 6.83230469 7.71046875 7.06304687 8.33203125 7.30078125 C11.09800775 8.95738228 11.85422234 10.53261445 13.25390625 13.4140625 C13.681875 14.26613281 14.10984375 15.11820313 14.55078125 15.99609375 C15.54835419 18.72306569 15.68990401 20.72376386 15.50390625 23.6015625 C14.51390625 23.9315625 13.52390625 24.2615625 12.50390625 24.6015625 C12.189375 23.78171875 11.87484375 22.961875 11.55078125 22.1171875 C11.1228125 21.03953125 10.69484375 19.961875 10.25390625 18.8515625 C9.83625 17.78421875 9.41859375 16.716875 8.98828125 15.6171875 C7.49993938 12.59350348 5.92109942 10.89479704 3.50390625 8.6015625 C3.50390625 7.9415625 3.50390625 7.2815625 3.50390625 6.6015625 C2.78203125 6.3128125 2.06015625 6.0240625 1.31640625 5.7265625 C-0.40523809 5.03790476 -2.11878809 4.32795438 -3.81640625 3.58203125 C-11.19629804 0.88180845 -18.92603648 1.01725814 -26.30078125 3.56640625 C-29.56293549 5.10461065 -31.85637305 7.15982085 -34.49609375 9.6015625 C-35.15609375 9.6015625 -35.81609375 9.6015625 -36.49609375 9.6015625 C-36.76421875 10.4265625 -37.03234375 11.2515625 -37.30859375 12.1015625 C-37.91766649 13.89672427 -38.53627517 15.69329375 -39.296875 17.4296875 C-41.93431461 23.57954668 -42.71590195 29.52897705 -40.76953125 36.02734375 C-37.64484039 43.585031 -33.26149398 48.86779538 -25.953125 52.625 C-18.90141441 55.42774666 -11.58919436 55.11041846 -4.49609375 52.6015625 C-2.0702487 51.3840105 0.18527433 50.02113307 2.50390625 48.6015625 C3.16390625 48.6015625 3.82390625 48.6015625 4.50390625 48.6015625 C4.00890625 47.7765625 3.51390625 46.9515625 3.00390625 46.1015625 C0.95968092 41.3317034 0.59304404 37.26408282 2.31640625 32.2265625 C4.00501587 29.91583354 5.82492272 28.77067263 8.58984375 28.08203125 C12.38777778 27.59594754 14.83357928 27.33057926 18.44140625 28.7890625 C22.34228614 32.21710846 22.8122895 35.66752918 23.19140625 40.7265625 C23.27777344 41.78101563 23.36414063 42.83546875 23.453125 43.921875 C23.50390625 46.6015625 23.50390625 46.6015625 22.50390625 48.6015625 C19.15602204 48.83232062 15.84854035 48.91920532 12.49414062 48.90429688 C10.05953554 48.92531179 10.05953554 48.92531179 6.50390625 49.6015625 C4.28045377 51.92384682 4.28045377 51.92384682 2.50390625 54.6015625 C-5.85406282 59.69942014 -14.64572302 61.22110683 -24.15625 58.97265625 C-31.70939476 56.36933124 -38.13260035 51.73062496 -42.1328125 44.7421875 C-45.93122957 36.5140978 -48.18222768 28.93372853 -45.77734375 19.90234375 C-44.81741833 17.37479819 -43.739372 15.00166589 -42.49609375 12.6015625 C-42.16867188 11.96347656 -41.84125 11.32539062 -41.50390625 10.66796875 C-33.22359023 -2.90087028 -13.68056891 -7.66454408 0 0 Z M7.50390625 34.6015625 C7.14877246 36.50977311 7.14877246 36.50977311 7.19140625 38.6015625 C7.17464844 39.3028125 7.15789062 40.0040625 7.140625 40.7265625 C7.26050781 41.3453125 7.38039062 41.9640625 7.50390625 42.6015625 C10.33963888 44.93931279 10.33963888 44.93931279 13.62890625 44.3515625 C14.57765625 44.1040625 15.52640625 43.8565625 16.50390625 43.6015625 C17.90325638 40.80286223 17.7565603 38.69657458 17.50390625 35.6015625 C16.44045573 33.62126568 16.44045573 33.62126568 14.50390625 32.6015625 C11.02169324 32.17690238 10.03881315 32.0666556 7.50390625 34.6015625 Z " fill="#9328AF" transform="translate(60.49609375,26.3984375)"/>
<path d="M0 0 C2.625 0.375 2.625 0.375 5 1 C6.78411842 6.35235527 6.22733434 12.08624903 6.25 17.6875 C6.270625 18.94240234 6.29125 20.19730469 6.3125 21.49023438 C6.34782565 29.8756598 6.12819906 36.3243661 0.5 42.9375 C-3.55209384 46.28047742 -6.87267119 46.34761551 -12 46 C-16.64646027 44.26896578 -19.43863658 42.26893904 -22 38 C-22.81122855 35.16070006 -22.95124468 33.02283013 -23 30 C-21.8125 27.9375 -21.8125 27.9375 -20 27 C-17.99609375 27.15625 -17.99609375 27.15625 -16 28 C-14.953125 30.06640625 -14.953125 30.06640625 -14.25 32.5625 C-14.00765625 33.38878906 -13.7653125 34.21507812 -13.515625 35.06640625 C-13.26039062 36.02353516 -13.26039062 36.02353516 -13 37 C-10.36 37 -7.72 37 -5 37 C-2.70011952 33.34245554 -2.71919692 30.15874997 -2.65625 25.8984375 C-2.6416272 25.22076324 -2.62700439 24.54308899 -2.61193848 23.84487915 C-2.54982976 20.955367 -2.50996717 18.06564847 -2.46826172 15.17578125 C-2.43458594 13.06227014 -2.38947929 10.94921652 -2.34375 8.8359375 C-2.32505859 7.57313965 -2.30636719 6.3103418 -2.28710938 5.00927734 C-2 2 -2 2 0 0 Z " fill="#7B16A1" transform="translate(54,34)"/>
<path d="M0 0 C2.7307255 3.69566937 3.45622653 6.63966073 3.75 11.1875 C3.82734375 12.23292969 3.9046875 13.27835938 3.984375 14.35546875 C4 17 4 17 3 19 C-0.34788421 19.23075812 -3.6553659 19.31764282 -7.00976562 19.30273438 C-9.44437071 19.32374929 -9.44437071 19.32374929 -13 20 C-15.22345248 22.32228432 -15.22345248 22.32228432 -17 25 C-24.58641844 29.62725824 -32.23678265 30.95997686 -41 30 C-41.99 29.67 -42.98 29.34 -44 29 C-44 28.34 -44 27.68 -44 27 C-44.99 26.67 -45.98 26.34 -47 26 C-47 25.34 -47 24.68 -47 24 C-47.99 23.67 -48.98 23.34 -50 23 C-49.67 22.34 -49.34 21.68 -49 21 C-48.21625 21.474375 -47.4325 21.94875 -46.625 22.4375 C-39.19773038 25.63890932 -31.61431769 25.69321237 -24 23 C-21.57415495 21.782448 -19.31863192 20.41957057 -17 19 C-16.34 19 -15.68 19 -15 19 C-15.495 18.175 -15.99 17.35 -16.5 16.5 C-18.54422533 11.7301409 -18.91086221 7.66252032 -17.1875 2.625 C-15.10899775 -0.21926624 -13.05459341 -0.98763923 -9.6875 -1.75 C-5.73165925 -2.01819259 -3.53611238 -1.76805619 0 0 Z M-12 5 C-12.35513379 6.90821061 -12.35513379 6.90821061 -12.3125 9 C-12.32925781 9.70125 -12.34601563 10.4025 -12.36328125 11.125 C-12.24339844 11.74375 -12.12351563 12.3625 -12 13 C-9.16426737 15.33775029 -9.16426737 15.33775029 -5.875 14.75 C-4.92625 14.5025 -3.9775 14.255 -3 14 C-1.60064987 11.20129973 -1.74734595 9.09501208 -2 6 C-3.06345052 4.01970318 -3.06345052 4.01970318 -5 3 C-8.48221301 2.57533988 -9.4650931 2.4650931 -12 5 Z " fill="#761E98" transform="translate(80,56)"/>
<path d="M0 0 C1.67542976 0.28604898 3.34385343 0.61781233 5 1 C5.0928125 1.66128906 5.185625 2.32257812 5.28125 3.00390625 C6.38713669 7.61377087 8.47964175 11.74311508 10.47265625 16.02929688 C12.27627424 20.01008554 13.63159605 23.58573119 14 28 C13.67 28.66 13.34 29.32 13 30 C11.68 29.67 10.36 29.34 9 29 C8.505 26.525 8.505 26.525 8 24 C3.71 24 -0.58 24 -5 24 C-5.33 25.65 -5.66 27.3 -6 29 C-7.65 29.33 -9.3 29.66 -11 30 C-10.44891638 24.78486722 -9.17094402 20.34040414 -7.125 15.5 C-6.86847656 14.87480469 -6.61195313 14.24960937 -6.34765625 13.60546875 C-5.57588152 11.73226677 -4.78945621 9.86580998 -4 8 C-3.72639648 7.34257813 -3.45279297 6.68515625 -3.17089844 6.0078125 C-1.11744173 1.11744173 -1.11744173 1.11744173 0 0 Z M1 11 C-0.25664978 13.90600261 -1 15.79604584 -1 19 C0.98 19 2.96 19 5 19 C3.73025028 14.58477891 3.73025028 14.58477891 1 11 Z " fill="#8913AF" transform="translate(161,46)"/>
<path d="M0 0 C12.42830621 -0.90815769 12.42830621 -0.90815769 16.0078125 1.16015625 C18.47284876 4.04587235 20 7.22082075 20 11 C18.45641562 14.93614016 17.55160136 16.63226576 14 19 C11.73828125 19.4140625 11.73828125 19.4140625 9.3125 19.625 C8.50425781 19.69976562 7.69601563 19.77453125 6.86328125 19.8515625 C5.94095703 19.92503906 5.94095703 19.92503906 5 20 C5.020625 21.27875 5.04125 22.5575 5.0625 23.875 C5.125 27.75 5.125 27.75 4 30 C0.125 29.125 0.125 29.125 -1 28 C-1.09974389 26.09715013 -1.1308063 24.19061747 -1.1328125 22.28515625 C-1.13410156 21.12435547 -1.13539063 19.96355469 -1.13671875 18.76757812 C-1.13091797 16.93356445 -1.13091797 16.93356445 -1.125 15.0625 C-1.13080078 13.23428711 -1.13080078 13.23428711 -1.13671875 11.36914062 C-1.13542969 10.20705078 -1.13414062 9.04496094 -1.1328125 7.84765625 C-1.13168457 6.77523682 -1.13055664 5.70281738 -1.12939453 4.59790039 C-1 2 -1 2 0 0 Z M5 6 C5 8.64 5 11.28 5 14 C7.91482778 14.80967438 9.46113217 15.21845993 12.3125 14.0625 C12.869375 13.711875 13.42625 13.36125 14 13 C14.16687448 10.58354218 14.16687448 10.58354218 14 8 C12.04366025 5.58878141 12.04366025 5.58878141 8.375 5.875 C6.704375 5.936875 6.704375 5.936875 5 6 Z " fill="#8915B2" transform="translate(131,46)"/>
<path d="M0 0 C3.0251261 2.54385604 3.91970802 3.49315689 4.75 7.3125 C5.27333805 16.2658239 5.27333805 16.2658239 3.75 19.3125 C1.1649133 19.44776616 -1.41308752 19.54667653 -4 19.625 C-4.72960937 19.66689453 -5.45921875 19.70878906 -6.2109375 19.75195312 C-10.07282622 19.83972332 -11.82385507 19.70743049 -14.703125 17.0390625 C-16.77597544 13.38540187 -17.60346723 10.51300597 -17.25 6.3125 C-15.64182692 3.09615384 -14.27289934 1.06262618 -11.375 -1.0625 C-6.91101668 -2.37543627 -4.15251637 -2.15611427 0 0 Z M-11.25 5.3125 C-11.63024775 9.96395592 -11.63024775 9.96395592 -10.25 14.3125 C-7.42037671 15.32620127 -7.42037671 15.32620127 -4.25 15.3125 C-1.85204619 13.49962805 -1.85204619 13.49962805 -0.25 11.3125 C-0.91 9.0025 -1.57 6.6925 -2.25 4.3125 C-6.99076549 3.12551999 -6.99076549 3.12551999 -11.25 5.3125 Z " fill="#7819A1" transform="translate(122.25,55.6875)"/>
<path d="M0 0 C2.78174065 3.74234174 3.43406226 6.69993305 3.6875 11.3125 C3.78611328 12.91544922 3.78611328 12.91544922 3.88671875 14.55078125 C3.92410156 15.35902344 3.96148437 16.16726562 4 17 C3.41992188 16.98839844 2.83984375 16.97679688 2.2421875 16.96484375 C-1.42710134 16.92245923 -4.70234857 16.93822329 -8.3125 17.6875 C-11 18 -11 18 -13.375 16.5625 C-13.91125 16.046875 -14.4475 15.53125 -15 15 C-14.67 12.69 -14.34 10.38 -14 8 C-14.66 8 -15.32 8 -16 8 C-16.75 5.75 -16.75 5.75 -17 3 C-14.86957495 -0.19563758 -13.3481377 -0.90974208 -9.625 -1.875 C-5.75281366 -2.00852367 -3.46077209 -1.73038605 0 0 Z M-12 5 C-12.35513379 6.90821061 -12.35513379 6.90821061 -12.3125 9 C-12.32925781 9.70125 -12.34601563 10.4025 -12.36328125 11.125 C-12.24339844 11.74375 -12.12351562 12.3625 -12 13 C-9.16426737 15.33775029 -9.16426737 15.33775029 -5.875 14.75 C-4.92625 14.5025 -3.9775 14.255 -3 14 C-1.60064987 11.20129973 -1.74734595 9.09501208 -2 6 C-3.06345052 4.01970318 -3.06345052 4.01970318 -5 3 C-8.48221301 2.57533988 -9.4650931 2.4650931 -12 5 Z " fill="#81229E" transform="translate(80,56)"/>
<path d="M0 0 C2.41796875 0.12109375 2.41796875 0.12109375 5 1 C6.36328125 3.28515625 6.36328125 3.28515625 7.3125 6.0625 C7.63863281 6.98160156 7.96476562 7.90070312 8.30078125 8.84765625 C8.53152344 9.55792969 8.76226562 10.26820312 9 11 C10.96955252 8.50633687 12.49754584 6.19655316 13.6875 3.25 C14.120625 2.1775 14.55375 1.105 15 0 C17.475 0.495 17.475 0.495 20 1 C18.81330581 5.74677675 17.2218139 9.81163912 14.9375 14.13671875 C13.87958267 16.13289931 13.87958267 16.13289931 13 18.9375 C12.505 19.9584375 12.505 19.9584375 12 21 C9.9375 21.62890625 9.9375 21.62890625 8 22 C4.38897505 15.17753074 1.48647314 8.30661938 -1 1 C-0.67 0.67 -0.34 0.34 0 0 Z " fill="#811C9F" transform="translate(85,54)"/>
<path d="M0 0 C0 0.66 0 1.32 0 2 C0.60328125 2.23074219 1.2065625 2.46148437 1.828125 2.69921875 C4.5941015 4.35581978 5.35031609 5.93105195 6.75 8.8125 C7.17796875 9.66457031 7.6059375 10.51664063 8.046875 11.39453125 C9.04444794 14.12150319 9.18599776 16.12220136 9 19 C8.01 19.33 7.02 19.66 6 20 C5.68546875 19.18015625 5.3709375 18.3603125 5.046875 17.515625 C4.61890625 16.43796875 4.1909375 15.3603125 3.75 14.25 C3.33234375 13.18265625 2.9146875 12.1153125 2.484375 11.015625 C0.99603313 7.99194098 -0.58280683 6.29323454 -3 4 C-3 3.34 -3 2.68 -3 2 C-3.721875 1.71125 -4.44375 1.4225 -5.1875 1.125 C-6.92989762 0.42804095 -8.66198731 -0.29615222 -10.375 -1.0625 C-13.55658303 -2.19877965 -16.65288801 -2.60622212 -20 -3 C-20 -3.66 -20 -4.32 -20 -5 C-21.65 -5 -23.3 -5 -25 -5 C-25.33 -5.66 -25.66 -6.32 -26 -7 C-16.19842072 -9.1307781 -7.53903034 -6.70136031 0 0 Z " fill="#7B1FAA" transform="translate(67,31)"/>
<path d="M0 0 C2.625 0.375 2.625 0.375 5 1 C5.33 2.32 5.66 3.64 6 5 C5.34 5 4.68 5 4 5 C4.01047363 5.6705542 4.02094727 6.3411084 4.03173828 7.03198242 C4.07343171 10.08378316 4.09936853 13.13552384 4.125 16.1875 C4.14175781 17.24259766 4.15851562 18.29769531 4.17578125 19.38476562 C4.18222656 20.40634766 4.18867187 21.42792969 4.1953125 22.48046875 C4.20578613 23.41785889 4.21625977 24.35524902 4.22705078 25.32104492 C3.98166713 28.21630812 3.20521619 30.37062697 2 33 C1.01 32.67 0.02 32.34 -1 32 C-2.63863447 9.46877602 -2.63863447 9.46877602 -2 2 C-1.34 1.34 -0.68 0.68 0 0 Z " fill="#8C10B3" transform="translate(54,34)"/>
<path d="M0 0 C0.33 0 0.66 0 1 0 C1.09796875 0.845625 1.1959375 1.69125 1.296875 2.5625 C2.6982086 13.19330661 4.51279815 19.398843 13 26 C13.33 26.99 13.66 27.98 14 29 C15.62652316 30.70586575 17.29006566 32.3777546 19 34 C12.19545061 33.18641257 7.64013107 28.76554001 3 24 C-0.57869013 18.40536652 -2.55924057 12.61139141 -3 6 C-2.34 6.66 -1.68 7.32 -1 8 C-0.67 5.36 -0.34 2.72 0 0 Z " fill="#821EA5" transform="translate(17,50)"/>
<path d="M0 0 C1.99609375 0.84375 1.99609375 0.84375 3.04296875 2.91015625 C3.275 3.73386719 3.50703125 4.55757813 3.74609375 5.40625 C3.9884375 6.23253906 4.23078125 7.05882813 4.48046875 7.91015625 C4.650625 8.54824219 4.82078125 9.18632813 4.99609375 9.84375 C6.64609375 10.17375 8.29609375 10.50375 9.99609375 10.84375 C9.99609375 11.17375 9.99609375 11.50375 9.99609375 11.84375 C8.34609375 11.84375 6.69609375 11.84375 4.99609375 11.84375 C4.66609375 10.85375 4.33609375 9.86375 3.99609375 8.84375 C2.67609375 9.17375 1.35609375 9.50375 -0.00390625 9.84375 C0.32609375 11.49375 0.65609375 13.14375 0.99609375 14.84375 C1.89972656 14.90433594 2.80335937 14.96492188 3.734375 15.02734375 C4.91386719 15.11113281 6.09335937 15.19492188 7.30859375 15.28125 C8.48035156 15.36246094 9.65210938 15.44367188 10.859375 15.52734375 C13.99609375 15.84375 13.99609375 15.84375 16.99609375 16.84375 C13.33179361 19.18890209 10.27433392 19.21256381 5.99609375 18.84375 C1.34963348 17.11271578 -1.44254283 15.11268904 -4.00390625 10.84375 C-4.8151348 8.00445006 -4.95515093 5.86658013 -5.00390625 2.84375 C-3.54435909 0.30874704 -2.92745183 -0.22826135 0 0 Z " fill="#771699" transform="translate(36.00390625,61.15625)"/>
<path d="M0 0 C-0.33 0.66 -0.66 1.32 -1 2 C-2.98 2 -4.96 2 -7 2 C-8.49084832 6.47254497 -8.49084832 10.52745503 -7 15 C-5.35 15.33 -3.7 15.66 -2 16 C-2 16.66 -2 17.32 -2 18 C-10.17714286 18.61714286 -10.17714286 18.61714286 -13 16.5 C-14.87429639 11.81425904 -15.7403926 7.83149748 -13.8125 3.0625 C-10.13011277 -1.12780271 -5.22284828 -0.08704747 0 0 Z " fill="#7A18A2" transform="translate(120,56)"/>
<path d="M0 0 C0.75 1.625 0.75 1.625 1 4 C-2.136 9.712 -2.136 9.712 -6 11 C-10.83105392 11.27345588 -14.49302254 10.75882047 -19 9 C-19.12375 8.195625 -19.2475 7.39125 -19.375 6.5625 C-19.684375 5.2940625 -19.684375 5.2940625 -20 4 C-20.66 3.67 -21.32 3.34 -22 3 C-20.02 3 -18.04 3 -16 3 C-15.67 3.66 -15.34 4.32 -15 5 C-10.70057734 5.90949326 -7.25063401 6.15926382 -3 5 C-2.67 4.01 -2.34 3.02 -2 2 C-1.34 2 -0.68 2 0 2 C0 1.34 0 0.68 0 0 Z " fill="#8B11B1" transform="translate(56,67)"/>
<path d="M0 0 C2.625 0.375 2.625 0.375 5 1 C5.144375 1.7425 5.28875 2.485 5.4375 3.25 C5.91956351 5.92680691 5.91956351 5.92680691 6.75 8.125 C7 10 7 10 5.75 11.75 C4 13 4 13 1 13 C0.01 14.485 0.01 14.485 -1 16 C-1 14.68 -1 13.36 -1 12 C-1.66 11.67 -2.32 11.34 -3 11 C-2.34 11 -1.68 11 -1 11 C-1.66 10.01 -2.32 9.02 -3 8 C-2.55555556 2.55555556 -2.55555556 2.55555556 0 0 Z " fill="#971BBB" transform="translate(161,46)"/>
<path d="M0 0 C1.65 0.33 3.3 0.66 5 1 C3.81330581 5.74677675 2.2218139 9.81163912 -0.0625 14.13671875 C-1.12041733 16.13289931 -1.12041733 16.13289931 -2 18.9375 C-3 21 -3 21 -5.125 21.8125 C-5.74375 21.874375 -6.3625 21.93625 -7 22 C-7.33 21.01 -7.66 20.02 -8 19 C-6.68 19 -5.36 19 -4 19 C-3.34 17.02 -2.68 15.04 -2 13 C-3.98 13.99 -3.98 13.99 -6 15 C-4.64475824 9.57903298 -2.63365987 4.9221313 0 0 Z " fill="#78219F" transform="translate(100,54)"/>
<path d="M0 0 C0.99 0.33 1.98 0.66 3 1 C3 1.66 3 2.32 3 3 C3.60328125 3.23074219 4.2065625 3.46148437 4.828125 3.69921875 C7.5941015 5.35581978 8.35031609 6.93105195 9.75 9.8125 C10.39195313 11.09060547 10.39195313 11.09060547 11.046875 12.39453125 C12.04444794 15.12150319 12.18599776 17.12220136 12 20 C11.01 20.33 10.02 20.66 9 21 C8.68546875 20.18015625 8.3709375 19.3603125 8.046875 18.515625 C7.61890625 17.43796875 7.1909375 16.3603125 6.75 15.25 C6.33234375 14.18265625 5.9146875 13.1153125 5.484375 12.015625 C3.99327135 8.98633022 2.39861545 7.31730646 0 5 C-0.25 2.25 -0.25 2.25 0 0 Z " fill="#812C9E" transform="translate(64,30)"/>
<path d="M0 0 C0.99 0.33 1.98 0.66 3 1 C3.33 1.99 3.66 2.98 4 4 C3.67 4.33 3.34 4.66 3 5 C2.92851801 6.35243917 2.91600546 7.70834367 2.9375 9.0625 C2.958125 10.361875 2.97875 11.66125 3 13 C4.98 13.99 6.96 14.98 9 16 C8.34 16.66 7.68 17.32 7 18 C1.54545455 17.54545455 1.54545455 17.54545455 -1 15 C-0.625 11.375 -0.625 11.375 0 8 C-0.66 8 -1.32 8 -2 8 C-2.6875 5.6875 -2.6875 5.6875 -3 3 C-1.5625 1.1875 -1.5625 1.1875 0 0 Z " fill="#921BAF" transform="translate(66,56)"/>
<path d="M0 0 C0.99 0.33 1.98 0.66 3 1 C2.11223998 4.69900008 1.05418136 8.34550461 0 12 C-0.66 12 -1.32 12 -2 12 C-2 14.64 -2 17.28 -2 20 C-2.66 20.33 -3.32 20.66 -4 21 C-6.46466974 13.60599079 -4.21236162 7.73434847 -1 1 C-0.67 0.67 -0.34 0.34 0 0 Z " fill="#8E25AB" transform="translate(19,38)"/>
<path d="M0 0 C2.625 0.375 2.625 0.375 5 1 C5.33 2.32 5.66 3.64 6 5 C5.34 5 4.68 5 4 5 C4 7.97 4 10.94 4 14 C3.34 12.68 2.68 11.36 2 10 C1.34 9.67 0.68 9.34 0 9 C-0.33 11.31 -0.66 13.62 -1 16 C-1.33 16 -1.66 16 -2 16 C-2.05384521 13.70858714 -2.09272087 11.41681812 -2.125 9.125 C-2.14820313 7.84882812 -2.17140625 6.57265625 -2.1953125 5.2578125 C-2 2 -2 2 0 0 Z " fill="#8A21B0" transform="translate(54,34)"/>
<path d="M0 0 C2.44710376 1.86977097 2.96931493 2.82502483 3.51171875 5.91796875 C3.56972656 6.99691406 3.62773438 8.07585937 3.6875 9.1875 C3.78611328 10.81751953 3.78611328 10.81751953 3.88671875 12.48046875 C3.94279297 13.72763672 3.94279297 13.72763672 4 15 C1.36 14.67 -1.28 14.34 -4 14 C-3.34 13.67 -2.68 13.34 -2 13 C-1.56893307 10.21663762 -1.56893307 10.21663762 -1.4375 7 C-1.09637046 1.09637046 -1.09637046 1.09637046 0 0 Z " fill="#851EAA" transform="translate(80,58)"/>
<path d="M0 0 C0.66 0 1.32 0 2 0 C2.33 5.94 2.66 11.88 3 18 C3.33 18 3.66 18 4 18 C4.33 15.69 4.66 13.38 5 11 C5.33 11 5.66 11 6 11 C6.125 18.75 6.125 18.75 5 21 C1.125 20.125 1.125 20.125 0 19 C-0.08651611 17.58429877 -0.10704904 16.164405 -0.09765625 14.74609375 C-0.09443359 13.89208984 -0.09121094 13.03808594 -0.08789062 12.15820312 C-0.07951172 11.26037109 -0.07113281 10.36253906 -0.0625 9.4375 C-0.05798828 8.53580078 -0.05347656 7.63410156 -0.04882812 6.70507812 C-0.03700225 4.46998686 -0.0205222 2.23502563 0 0 Z " fill="#751E95" transform="translate(130,55)"/>
<path d="M0 0 C3.61941735 1.50239966 6.7321794 2.82145293 10 5 C12.64017635 5.81779841 15.30270591 6.3809489 18 7 C17.67 7.66 17.34 8.32 17 9 C15.741875 9.020625 14.48375 9.04125 13.1875 9.0625 C12.47980469 9.07410156 11.77210937 9.08570312 11.04296875 9.09765625 C9 9 9 9 6 8 C6 7.34 6 6.68 6 6 C5.01 5.67 4.02 5.34 3 5 C3 4.34 3 3.68 3 3 C2.01 2.67 1.02 2.34 0 2 C0 1.34 0 0.68 0 0 Z " fill="#7812A2" transform="translate(30,77)"/>
<path d="M0 0 C0.33 0 0.66 0 1 0 C1 2.64 1 5.28 1 8 C1.99 8.33 2.98 8.66 4 9 C3.67 9.66 3.34 10.32 3 11 C4.27875 10.896875 5.5575 10.79375 6.875 10.6875 C7.59429687 10.62949219 8.31359375 10.57148437 9.0546875 10.51171875 C11.39519216 10.12606964 11.39519216 10.12606964 13 7 C13.39387788 4.67612053 13.73486085 2.34206251 14 0 C15.1875 1.5625 15.1875 1.5625 16 4 C14.58626635 8.31560798 13.82241136 10.45172576 10 13 C7.73828125 13.4140625 7.73828125 13.4140625 5.3125 13.625 C4.50425781 13.69976562 3.69601563 13.77453125 2.86328125 13.8515625 C1.94095703 13.92503906 1.94095703 13.92503906 1 14 C-0.04976964 10.85069107 -0.10131595 8.61185544 -0.0625 5.3125 C-0.05347656 4.31863281 -0.04445312 3.32476562 -0.03515625 2.30078125 C-0.02355469 1.54152344 -0.01195312 0.78226563 0 0 Z " fill="#7D2299" transform="translate(135,52)"/>
<path d="M0 0 C0.99 0.33 1.98 0.66 3 1 C3 1.66 3 2.32 3 3 C2.01 3.495 2.01 3.495 1 4 C0.23889719 5.91930274 -0.51448008 7.84258654 -1.203125 9.7890625 C-2.33257156 12.92272307 -3.66514012 15.94889171 -5 19 C-4.01 19 -3.02 19 -2 19 C-2 19.66 -2 20.32 -2 21 C-3.65 21.33 -5.3 21.66 -7 22 C-6.44147333 16.5632024 -5.06042383 12.0816633 -2.9375 7.0625 C-2.65583984 6.37865234 -2.37417969 5.69480469 -2.08398438 4.99023438 C-1.3964595 3.32386054 -0.69923825 1.66149273 0 0 Z " fill="#7F2A98" transform="translate(157,54)"/>
<path d="M0 0 C0.99 0.99 1.98 1.98 3 3 C2.34 5.31 1.68 7.62 1 10 C1.99 10 2.98 10 4 10 C3.67 10.99 3.34 11.98 3 13 C-2.75 12.25 -2.75 12.25 -5 10 C-3.68 9.67 -2.36 9.34 -1 9 C-1.66 7.02 -2.32 5.04 -3 3 C-2.01 2.67 -1.02 2.34 0 2 C0 1.34 0 0.68 0 0 Z " fill="#9317B7" transform="translate(167,56)"/>
<path d="M0 0 C1.32 0 2.64 0 4 0 C4.33 1.65 4.66 3.3 5 5 C5.90363281 5.06058594 6.80726562 5.12117188 7.73828125 5.18359375 C9.50751953 5.30927734 9.50751953 5.30927734 11.3125 5.4375 C12.48425781 5.51871094 13.65601563 5.59992188 14.86328125 5.68359375 C18 6 18 6 21 7 C17.33569986 9.34515209 14.27824017 9.36881381 10 9 C5.32124197 7.25693328 2.81180927 5.1095674 0 1 C0 0.67 0 0.34 0 0 Z " fill="#6B1686" transform="translate(32,71)"/>
<path d="M0 0 C0.66 0.33 1.32 0.66 2 1 C-1.625 6.875 -1.625 6.875 -5 8 C-5.33 8.99 -5.66 9.98 -6 11 C-6.99 10.67 -7.98 10.34 -9 10 C-7.63842622 4.70499087 -4.39656045 2.76254467 0 0 Z " fill="#8327A5" transform="translate(29,28)"/>
<path d="M0 0 C1 2 1 2 1 5 C2.32 5.33 3.64 5.66 5 6 C5 6.66 5 7.32 5 8 C-0.28 8 -5.56 8 -11 8 C-11 7.67 -11 7.34 -11 7 C-8.36 7 -5.72 7 -3 7 C-3 6.34 -3 5.68 -3 5 C-4.65 5 -6.3 5 -8 5 C-8.33 4.34 -8.66 3.68 -9 3 C-6.36 3 -3.72 3 -1 3 C-0.67 2.01 -0.34 1.02 0 0 Z " fill="#752090" transform="translate(121,67)"/>
<path d="M0 0 C1.65 0.33 3.3 0.66 5 1 C5.144375 1.7425 5.28875 2.485 5.4375 3.25 C5.91956351 5.92680691 5.91956351 5.92680691 6.75 8.125 C6.87375 9.053125 6.87375 9.053125 7 10 C5.5625 11.75 5.5625 11.75 4 13 C3.34 12.67 2.68 12.34 2 12 C2.20625 10.88625 2.4125 9.7725 2.625 8.625 C2.810625 6.830625 2.810625 6.830625 3 5 C2.34 4.34 1.68 3.68 1 3 C0.01 3.33 -0.98 3.66 -2 4 C-1.34 2.68 -0.68 1.36 0 0 Z " fill="#A43DC6" transform="translate(161,46)"/>
<path d="M0 0 C0.99 0 1.98 0 3 0 C3.33 0.99 3.66 1.98 4 3 C7.00007271 4.70855022 7.00007271 4.70855022 10 6 C9.34 6.66 8.68 7.32 8 8 C2.54545455 7.54545455 2.54545455 7.54545455 0 5 C-0.125 2.375 -0.125 2.375 0 0 Z " fill="#8719A9" transform="translate(65,66)"/>
<path d="M0 0 C0.598125 0.185625 1.19625 0.37125 1.8125 0.5625 C4.16408762 1.22093687 4.16408762 1.22093687 7 0 C6.34 2.31 5.68 4.62 5 7 C3.68 6.67 2.36 6.34 1 6 C0.67 4.02 0.34 2.04 0 0 Z " fill="#8C10AF" transform="translate(91,67)"/>
<path d="M0 0 C1.67542976 0.28604898 3.34385343 0.61781233 5 1 C5 2.32 5 3.64 5 5 C4.34 5 3.68 5 3 5 C2.67 6.32 2.34 7.64 2 9 C1.01 6.36 0.02 3.72 -1 1 C-0.67 0.67 -0.34 0.34 0 0 Z " fill="#8E25A8" transform="translate(85,54)"/>
<path d="M0 0 C1.32 0 2.64 0 4 0 C4 0.66 4 1.32 4 2 C4.66 2 5.32 2 6 2 C6 1.34 6 0.68 6 0 C6.66 0 7.32 0 8 0 C9.125 4.75 9.125 4.75 8 7 C6.68 6.67 5.36 6.34 4 6 C3.67 4.35 3.34 2.7 3 1 C2.01 0.67 1.02 0.34 0 0 Z " fill="#8B1BA8" transform="translate(166,69)"/>
<path d="M0 0 C0.33 1.32 0.66 2.64 1 4 C1.66 4 2.32 4 3 4 C2.67 6.64 2.34 9.28 2 12 C0.5 11 0.5 11 -1 9 C-1.33190332 6.24520245 -1.18037589 3.79582634 -1 1 C-0.67 0.67 -0.34 0.34 0 0 Z " fill="#79219F" transform="translate(63,60)"/>
<path d="M0 0 C1.32 0.66 2.64 1.32 4 2 C3.34 2 2.68 2 2 2 C2 4.64 2 7.28 2 10 C1.01 10.495 1.01 10.495 0 11 C-1.16461426 7.50615721 -1.13568319 4.66344611 -1 1 C-0.67 0.67 -0.34 0.34 0 0 Z " fill="#941AB9" transform="translate(15,48)"/>
<path d="M0 0 C1.8871875 0.0309375 1.8871875 0.0309375 3.8125 0.0625 C3.4825 0.7225 3.1525 1.3825 2.8125 2.0625 C0.8325 2.0625 -1.1475 2.0625 -3.1875 2.0625 C-3.5175 3.0525 -3.8475 4.0425 -4.1875 5.0625 C-5.1775 5.0625 -6.1675 5.0625 -7.1875 5.0625 C-7.1875 3.7425 -7.1875 2.4225 -7.1875 1.0625 C-4.43671116 0.14557039 -2.82801087 -0.04636083 0 0 Z " fill="#8A14AC" transform="translate(116.1875,55.9375)"/>
<path d="M0 0 C1.65 0.33 3.3 0.66 5 1 C5 1.66 5 2.32 5 3 C5.66 3.66 6.32 4.32 7 5 C3.7 5.33 0.4 5.66 -3 6 C-2.01 4.02 -1.02 2.04 0 0 Z " fill="#8225A3" transform="translate(159,64)"/>
<path d="M0 0 C0.66 0.33 1.32 0.66 2 1 C2.125 7.75 2.125 7.75 1 10 C0.34 10 -0.32 10 -1 10 C-1.02689216 8.52093108 -1.04634621 7.04172517 -1.0625 5.5625 C-1.07410156 4.73878906 -1.08570312 3.91507813 -1.09765625 3.06640625 C-1 1 -1 1 0 0 Z " fill="#8E18B0" transform="translate(80,58)"/>
<path d="M0 0 C3.3 0 6.6 0 10 0 C7 3 7 3 3.3125 3.1875 C1.6728125 3.0946875 1.6728125 3.0946875 0 3 C-0.33 3.99 -0.66 4.98 -1 6 C-0.67 4.02 -0.34 2.04 0 0 Z " fill="#7D2AAE" transform="translate(131,46)"/>
<path d="M0 0 C0.66 0.99 1.32 1.98 2 3 C1.125 5.6875 1.125 5.6875 0 8 C-0.66 7.67 -1.32 7.34 -2 7 C-3.67654729 7.27942455 -5.34608154 7.60828247 -7 8 C-2.25 4 -2.25 4 0 4 C-0.33 3.01 -0.66 2.02 -1 1 C-0.67 0.67 -0.34 0.34 0 0 Z " fill="#5C1E99" transform="translate(65,71)"/>
<path d="M0 0 C-0.33 0.99 -0.66 1.98 -1 3 C-1.99 3.33 -2.98 3.66 -4 4 C-4 3.34 -4 2.68 -4 2 C-5.65 2 -7.3 2 -9 2 C-9.33 1.34 -9.66 0.68 -10 0 C-3.375 -1.125 -3.375 -1.125 0 0 Z " fill="#7915AF" transform="translate(51,24)"/>
<path d="M0 0 C0.99 0.33 1.98 0.66 3 1 C3 1.66 3 2.32 3 3 C2.01 3.495 2.01 3.495 1 4 C-0.04808041 5.97522846 -1.0520411 7.97481509 -2 10 C-3.39195915 5.82412255 -1.82323219 3.86525224 0 0 Z " fill="#8222A3" transform="translate(157,54)"/>
<path d="M0 0 C-0.33 1.32 -0.66 2.64 -1 4 C-2.98 4 -4.96 4 -7 4 C-6.67 3.01 -6.34 2.02 -6 1 C-4 0 -4 0 0 0 Z " fill="#882AA0" transform="translate(55,24)"/>
<path d="M0 0 C2.64 0.33 5.28 0.66 8 1 C8 1.66 8 2.32 8 3 C5.03 3 2.06 3 -1 3 C-0.67 2.01 -0.34 1.02 0 0 Z " fill="#7F13B3" transform="translate(110,71)"/>
<path d="M0 0 C0.75 1.5625 0.75 1.5625 1 4 C-0.13084437 6.50286409 -1.52139516 8.67007722 -3 11 C-3.66 11 -4.32 11 -5 11 C-4.731875 10.484375 -4.46375 9.96875 -4.1875 9.4375 C-2.67650593 6.33598585 -1.34427274 3.17737194 0 0 Z " fill="#722792" transform="translate(58,66)"/>
<path d="M0 0 C0.66 0.33 1.32 0.66 2 1 C0.02 3.97 0.02 3.97 -2 7 C-2.33 6.34 -2.66 5.68 -3 5 C-3.66 4.67 -4.32 4.34 -5 4 C-3.35 2.68 -1.7 1.36 0 0 Z " fill="#7C289C" transform="translate(29,28)"/>
<path d="M0 0 C0.75 1.75 0.75 1.75 1 4 C-0.9375 6.25 -0.9375 6.25 -3 8 C-3 5 -3 5 -2 2 C-1.34 2 -0.68 2 0 2 C0 1.34 0 0.68 0 0 Z " fill="#8E11B5" transform="translate(56,67)"/>
<path d="M0 0 C1.65 0 3.3 0 5 0 C5.33 0.66 5.66 1.32 6 2 C5.34 2 4.68 2 4 2 C4 2.66 4 3.32 4 4 C2.68 3.67 1.36 3.34 0 3 C0 2.01 0 1.02 0 0 Z " fill="#8E19AF" transform="translate(158,51)"/>
<path d="M0 0 C1.98 0.99 3.96 1.98 6 3 C6 4.32 6 5.64 6 7 C5.01 6.67 4.02 6.34 3 6 C2.67 5.01 2.34 4.02 2 3 C1.34 2.67 0.68 2.34 0 2 C0 1.34 0 0.68 0 0 Z " fill="#7C2599" transform="translate(58,26)"/>
</svg>
